<svg width="23" height="17" viewBox="0 0 23 17" fill="none" xmlns="http://www.w3.org/2000/svg">
<path d="M5.55624 4V2.5C5.55624 2.10218 5.39623 1.72064 5.11141 1.43934C4.82659 1.15804 4.44029 1 4.03749 1C3.63469 1 3.24839 1.15804 2.96357 1.43934C2.67875 1.72064 2.51874 2.10218 2.51874 2.5V6" stroke="white" stroke-width="2" stroke-linecap="round" stroke-linejoin="round"/>
<path d="M1 10C1 6.6865 3.72008 4 7.075 4C10.4299 4 13.15 6.6865 13.15 10V16H1V10ZM13.15 10H21.25V16H13.15V10Z" stroke="white" stroke-width="2" stroke-linejoin="round"/>
<path d="M7.07499 12C8.19336 12 9.09999 11.1046 9.09999 10C9.09999 8.89543 8.19336 8 7.07499 8C5.95661 8 5.04999 8.89543 5.04999 10C5.04999 11.1046 5.95661 12 7.07499 12Z" stroke="white" stroke-width="2"/>
<path d="M18.7188 10V12M15.6813 10V12M14.1625 10H20.2375" stroke="white" stroke-width="2" stroke-linecap="round" stroke-linejoin="round"/>
</svg>


