<svg width="15" height="22" viewBox="0 0 15 22" fill="none" xmlns="http://www.w3.org/2000/svg">
<path fill-rule="evenodd" clip-rule="evenodd" d="M7.50545 4.94971C8.14434 4.94971 8.75707 4.68897 9.20884 4.22485C9.66061 3.76072 9.91441 3.13123 9.91441 2.47486C9.91441 1.81848 9.66061 1.18899 9.20884 0.724869C8.75707 0.260743 8.14434 0 7.50545 0C6.86655 0 6.25382 0.260743 5.80205 0.724869C5.35028 1.18899 5.09648 1.81848 5.09648 2.47486C5.09648 3.13123 5.35028 3.76072 5.80205 4.22485C6.25382 4.68897 6.86655 4.94971 7.50545 4.94971V4.94971ZM14.9572 6.29164C15.0367 6.57169 15.0046 6.87272 14.8681 7.1285C14.7316 7.38429 14.5017 7.57388 14.2291 7.65556C12.9572 8.03614 11.8084 8.32322 10.7174 8.51406V20.8988C10.7177 21.1821 10.6116 21.4546 10.4212 21.6596C10.2308 21.8645 9.97073 21.986 9.69524 21.9989C9.41975 22.0117 9.15007 21.9148 8.94238 21.7284C8.73469 21.5421 8.60502 21.2805 8.58038 20.9983L8.04505 14.9487C8.04216 14.9156 8.04073 14.8824 8.04077 14.8491H6.97012C6.97016 14.8824 6.96873 14.9156 6.96584 14.9487L6.43051 20.9983C6.40587 21.2805 6.2762 21.5421 6.06851 21.7284C5.86082 21.9148 5.59114 22.0117 5.31565 21.9989C5.04016 21.986 4.78012 21.8645 4.5897 21.6596C4.39928 21.4546 4.29318 21.1821 4.29349 20.8988V8.49371C3.20518 8.30122 2.06065 8.02019 0.795145 7.65941C0.658361 7.62199 0.530157 7.55707 0.417951 7.46842C0.305745 7.37976 0.211765 7.26913 0.141448 7.14292C0.0711304 7.01671 0.0258717 6.87743 0.00829039 6.73313C-0.00929088 6.58883 0.00115446 6.44239 0.0390215 6.30226C0.0768885 6.16214 0.141426 6.03112 0.228899 5.91679C0.316373 5.80246 0.425047 5.70708 0.548632 5.63618C0.672218 5.56527 0.808264 5.52025 0.948896 5.50371C1.08953 5.48717 1.23196 5.49945 1.36794 5.53983C3.83472 6.24269 5.68802 6.59137 7.51026 6.59962C9.32823 6.60787 11.1772 6.27789 13.6296 5.54368C13.9022 5.462 14.1952 5.49491 14.4442 5.63518C14.6931 5.77545 14.8777 6.01158 14.9572 6.29164V6.29164Z" fill="white"/>
</svg>
