<svg viewBox="0 0 59.02 79.51" xmlns="http://www.w3.org/2000/svg"><ellipse cx="50.2" cy="48.62" fill="#ffc280" rx="5.71" ry="7.48"/><ellipse cx="50.2" cy="48.62" fill="#f9ab5d" rx="3.8" ry="4.98"/><ellipse cx="8.59" cy="48.62" fill="#ffc280" rx="5.71" ry="7.48"/><ellipse cx="8.59" cy="48.62" fill="#f9ab5d" rx="3.8" ry="4.98"/><ellipse cx="29.39" cy="46.52" fill="#ffc280" rx="21.54" ry="29.5"/><path d="m7.72 46.31c-1.73-6.59.06-21 2-24.11-1.61-3-.26-7 1.3-9.48 1.33-2.14 3.82-3.19 6-4.5s4.26-3.43 4-5.93c2.28 2.32 5.65 3.19 8.89 3.47s6.53.11 9.7.81a18.19 18.19 0 0 1 12.51 10.43c.79 1.82-.36 5.16-1.84 6.49 4.35 7.05 1.9 18.5.74 22.83-.87 0-.45-15.84-6.48-20.5s-7.39-.34-14.18-.34-8.07-3.21-13.93-2-7.96 22.79-8.71 22.83z" fill="#6d3f15"/></svg>