<svg width="16" height="15" viewBox="0 0 16 15" fill="none" xmlns="http://www.w3.org/2000/svg">
<path d="M8 0C8.84869 0 9.66263 0.351189 10.2627 0.976311C10.8629 1.60143 11.2 2.44928 11.2 3.33333C11.2 3.94167 11.048 4.50833 10.768 5H12.8C13.56 5 14.2 5.55833 14.36 6.3C15.968 12.975 16 13.15 16 13.3333C16 13.7754 15.8314 14.1993 15.5314 14.5118C15.2313 14.8244 14.8243 15 14.4 15H1.6C1.17565 15 0.768687 14.8244 0.468629 14.5118C0.168571 14.1993 0 13.7754 0 13.3333C0 13.15 0.0320002 12.975 1.64 6.3C1.8 5.55833 2.44 5 3.2 5H5.232C4.94602 4.49533 4.79673 3.91935 4.8 3.33333C4.8 2.44928 5.13714 1.60143 5.73726 0.976311C6.33737 0.351189 7.15131 0 8 0ZM8 1.66667C7.57565 1.66667 7.16869 1.84226 6.86863 2.15482C6.56857 2.46738 6.4 2.89131 6.4 3.33333C6.4 3.77536 6.56857 4.19928 6.86863 4.51184C7.16869 4.8244 7.57565 5 8 5C8.42435 5 8.83131 4.8244 9.13137 4.51184C9.43143 4.19928 9.6 3.77536 9.6 3.33333C9.6 2.89131 9.43143 2.46738 9.13137 2.15482C8.83131 1.84226 8.42435 1.66667 8 1.66667ZM3.2 6.66667V13.3333H4.8V11.25L5.6 12.0833V13.3333H7.2V11.6667L5.6 10L7.2 8.33333V6.66667H5.6V7.91667L4.8 8.75V6.66667H3.2ZM10.4 6.66667C9.512 6.66667 8.8 7.40833 8.8 8.33333V11.6667C8.8 12.5917 9.512 13.3333 10.4 13.3333H12.8V9.16667H11.2V11.6667H10.4V8.33333H12.8V6.66667H10.4Z" fill="white"/>
</svg>
